<?xml version="1.0" encoding="utf-8"?>
<!-- Generator: Adobe Illustrator 14.0.0, SVG Export Plug-In . SVG Version: 6.00 Build 43363)  -->
<!DOCTYPE svg PUBLIC "-//W3C//DTD SVG 1.1//EN" "http://www.w3.org/Graphics/SVG/1.1/DTD/svg11.dtd">
<svg version="1.1" id="Layer_1" xmlns="http://www.w3.org/2000/svg" xmlns:xlink="http://www.w3.org/1999/xlink" x="0px" y="0px"
	 width="612px" height="792px" viewBox="0 0 612 792" enable-background="new 0 0 612 792" xml:space="preserve">
<g>
	<g>
		<path fill="#3B2314" d="M169.105,370.259c-1.639,0-2.967-1.328-2.967-2.967l0,0c0-1.639,1.329-2.968,2.967-2.968h7.399
			c1.638,0,2.967,1.329,2.967,2.968l0,0c0,1.639-1.329,2.967-2.967,2.967H169.105z"/>
		<path fill="#3B2314" d="M169.105,378.086c-1.639,0-2.967-1.329-2.967-2.967l0,0c0-1.639,1.329-2.968,2.967-2.968h7.399
			c1.638,0,2.967,1.329,2.967,2.968l0,0c0,1.639-1.329,2.967-2.967,2.967H169.105z"/>
		<path fill="#3B2314" d="M169.105,385.913c-1.639,0-2.967-1.329-2.967-2.968l0,0c0-1.639,1.329-2.967,2.967-2.967h7.399
			c1.638,0,2.967,1.329,2.967,2.967l0,0c0,1.639-1.329,2.968-2.967,2.968H169.105z"/>
		<path fill="#3B2314" d="M435.495,370.259c-1.638,0-2.968-1.328-2.968-2.967l0,0c0-1.639,1.33-2.968,2.968-2.968h7.399
			c1.639,0,2.967,1.329,2.967,2.968l0,0c0,1.639-1.328,2.967-2.967,2.967H435.495z"/>
		<path fill="#3B2314" d="M435.495,378.086c-1.638,0-2.968-1.329-2.968-2.967l0,0c0-1.639,1.33-2.968,2.968-2.968h7.399
			c1.639,0,2.967,1.329,2.967,2.968l0,0c0,1.639-1.328,2.967-2.967,2.967H435.495z"/>
		<path fill="#3B2314" d="M435.495,385.913c-1.638,0-2.968-1.329-2.968-2.968l0,0c0-1.639,1.33-2.967,2.968-2.967h7.399
			c1.639,0,2.967,1.329,2.967,2.967l0,0c0,1.639-1.328,2.968-2.967,2.968H435.495z"/>
		<path fill="#3B2314" d="M409.693,413.986c3.49,9.344-15.844,25.195-43.184,35.406c-27.339,10.213-52.332,10.916-55.82,1.573
			L409.693,413.986z"/>
		<path fill="#C1B49A" stroke="#3B2314" stroke-width="6" stroke-linecap="round" stroke-linejoin="round" d="M430.555,360.985
			h-78.037v-1.591c0-4.771-3.416-8.64-7.627-8.64h-77.852c-4.212,0-7.627,3.868-7.627,8.64v1.591h-77.967
			c-4.771,0-8.64,3.868-8.64,8.64v10.987c0,4.771,3.869,8.64,8.64,8.64h77.967v146.339c0,4.772,3.869,8.64,8.64,8.64h13.375
			c4.771,0,8.64-3.867,8.64-8.64v-63.884h31.866v63.884c0,4.772,3.868,8.64,8.641,8.64h13.374c4.771,0,8.641-3.867,8.641-8.64
			l-0.059-146.339h78.025c4.771,0,8.641-3.868,8.641-8.64v-10.987C439.195,364.854,435.326,360.985,430.555,360.985z"/>
		<path fill="#3B2314" d="M353.123,394.449c-0.085-0.004-0.167-0.02-0.252-0.02c-5.855,0-10.604,7.508-10.604,16.771
			s4.748,16.771,10.604,16.771c0.701,0-1.43-0.114-0.767-0.32C353.96,416.467,351.851,405.84,353.123,394.449z"/>
		<path fill="#3B2314" d="M352.351,458.676c-3.663,0.281-6.57,4.213-6.57,9.039c0,5.008,3.128,9.066,6.987,9.066
			c0.387,0,0.764-0.051,1.134-0.129C353.982,470.75,352.064,464.575,352.351,458.676z"/>
		<path fill="#3B2314" d="M260.493,412.295c-0.031,0-0.062,0.006-0.093,0.006c0,15.623,1.515,31.246-0.648,46.868
			c0.245,0.034,0.492,0.058,0.741,0.058c6.146,0,11.129-10.506,11.129-23.465C271.622,422.802,266.639,412.295,260.493,412.295z"/>
		<path fill="#3B2314" d="M235.285,361.862c0-0.021-0.002-0.042-0.003-0.063c-10.647,0-21.294,1.033-31.941-0.441
			c-0.023,0.167-0.039,0.335-0.039,0.505c0,4.188,7.16,7.585,15.992,7.585C228.125,369.447,235.285,366.05,235.285,361.862z"/>
		<path fill="#3B2314" d="M381.439,389.251c0,0.014,0.002,0.029,0.002,0.044c7.457,0,14.914-0.723,22.37,0.31
			c0.017-0.117,0.027-0.235,0.027-0.354c0-2.934-5.015-5.312-11.199-5.312C386.453,383.939,381.439,386.318,381.439,389.251z"/>
	</g>
	<g>
		<path fill="#3B2314" stroke="#3B2314" stroke-width="11" stroke-linecap="round" stroke-linejoin="round" d="M408.139,259.504
			l-59.461-42.919c-3.763,0.643-6.729,3.163-8.118,6.433l-11.53,17.314h-46.141l-11.379-17.141
			c-0.551-1.361-1.369-2.596-2.408-3.628l-0.001,0l0,0c-1.522-1.511-3.503-2.589-5.777-2.978l-59.462,42.919
			c-0.296,1.736-0.15,3.442,0.339,5.016l0,0v0c0.889,2.855,2.94,5.257,5.695,6.558l20.394,23.483v44.808
			c0,5.964,4.836,10.8,10.8,10.8h11.553c5.004,10.193,15.482,17.213,27.604,17.213c3.912,0,7.65-0.739,11.092-2.071v5.846
			c0,5.964,4.836,10.8,10.8,10.8h8.03c5.965,0,10.8-4.835,10.8-10.8v-5.51c3.188,1.12,6.613,1.735,10.185,1.735
			c12.121,0,22.601-7.02,27.604-17.213h11.553c5.964,0,10.8-4.835,10.8-10.8v-44.227l20.837-23.993
			C406.312,269.173,408.983,264.45,408.139,259.504z"/>
		<polygon fill="#3B2314" points="269.101,219.563 287.826,247.771 238.006,303.447 204.2,264.52 		"/>
		<polygon fill="#3B2314" points="342.768,219.703 324.076,247.771 373.896,303.447 407.703,264.52 		"/>
		<path fill="#9A8479" d="M320.968,371.156c0,5.964-4.835,10.8-10.8,10.8h-8.03c-5.964,0-10.8-4.835-10.8-10.8v-14.261
			c0-5.964,4.836-10.8,10.8-10.8h8.03c5.965,0,10.8,4.835,10.8,10.8V371.156z"/>
		
			<line fill="none" stroke="#3B2314" stroke-width="6" stroke-linecap="round" stroke-linejoin="round" x1="305.699" y1="347.095" x2="305.699" y2="371.939"/>
		<path fill="#C1B49A" d="M381.109,339.369c0,5.964-4.836,10.8-10.8,10.8H241.089c-5.964,0-10.8-4.835-10.8-10.8v-88.237
			c0-5.964,4.836-10.8,10.8-10.8H370.31c5.964,0,10.8,4.835,10.8,10.8V339.369z"/>
		<g>
			<ellipse fill="#3B2314" cx="279.532" cy="288.135" rx="5.221" ry="9.181"/>
			<ellipse fill="#3B2314" cx="331.867" cy="288.135" rx="5.221" ry="9.181"/>
		</g>
		<g>
			<circle fill="#C1B49A" cx="280.247" cy="336.644" r="30.738"/>
			<circle fill="#C1B49A" cx="331.152" cy="336.644" r="30.738"/>
		</g>
		<path fill="none" stroke="#3B2314" stroke-width="6" stroke-linecap="round" stroke-linejoin="round" d="M249.509,339.644
			c0,16.976,13.762,30.737,30.737,30.737c10.588,0,19.925-5.354,25.453-13.502c5.528,8.147,14.865,13.502,25.453,13.502
			c16.975,0,30.737-13.762,30.737-30.737"/>
		<path fill="#3B2314" d="M331.184,304.629l-10.773,10.773c-8.124,8.124-21.298,8.124-29.423,0l-10.772-10.773
			C272.09,296.505,339.309,296.505,331.184,304.629z"/>
		<circle fill="#9A8479" cx="275.249" cy="333.57" r="3.074"/>
		<circle fill="#9A8479" cx="269.101" cy="347.095" r="3.074"/>
		<circle fill="#9A8479" cx="284.752" cy="344.021" r="3.074"/>
		<circle fill="#9A8479" cx="330.189" cy="333.57" r="3.074"/>
		<circle fill="#9A8479" cx="324.042" cy="347.095" r="3.074"/>
		<circle fill="#9A8479" cx="339.693" cy="344.021" r="3.074"/>
		<path fill="#3B2314" d="M265.163,269.972c-1.004,5.879-6.584,9.832-12.463,8.828l-40.011-6.832
			c-5.879-1.004-9.832-6.584-8.828-12.463l59.462-42.919c5.879,1.004,9.832,6.584,8.828,12.463L265.163,269.972z"/>
		<path fill="#3B2314" d="M346.837,269.972c1.004,5.879,6.584,9.832,12.464,8.828l40.01-6.832c5.879-1.004,9.832-6.584,8.828-12.463
			l-59.461-42.919c-5.88,1.004-9.832,6.584-8.828,12.463L346.837,269.972z"/>
		<ellipse fill="#9A8479" cx="306.153" cy="306.354" rx="14.815" ry="3.604"/>
	</g>
</g>
</svg>
